<?xml version="1.0" encoding="utf-8"?>
<!-- Generator: Adobe Illustrator 28.2.0, SVG Export Plug-In . SVG Version: 6.00 Build 0)  -->
<svg version="1.1" id="Layer_1" xmlns="http://www.w3.org/2000/svg" xmlns:xlink="http://www.w3.org/1999/xlink" x="0px" y="0px"
	 viewBox="0 0 500 500" style="enable-background:new 0 0 500 500;" xml:space="preserve">
<style type="text/css">
	.st0{fill:#00FF00;}
	.st1{stroke:#000000;stroke-miterlimit:10;}
</style>
<g>
	<circle cx="266" cy="254" r="126.5"/>
	<path d="M266,128c33.66,0,65.3,13.11,89.1,36.9c23.8,23.8,36.9,55.44,36.9,89.1s-13.11,65.3-36.9,89.1S299.66,380,266,380
		s-65.3-13.11-89.1-36.9c-23.8-23.8-36.9-55.44-36.9-89.1s13.11-65.3,36.9-89.1C200.7,141.11,232.34,128,266,128 M266,127
		c-70.14,0-127,56.86-127,127s56.86,127,127,127s127-56.86,127-127S336.14,127,266,127L266,127z"/>
</g>
<g>
	<path class="st0" d="M256.73,295.73c-6.62,0-12.16-1.87-16.47-5.57c-14.86-12.74-9.57-43.37,11.79-68.28
		c14.61-17.04,33.47-27.62,49.21-27.62c6.62,0,12.16,1.87,16.47,5.57c7.16,6.14,9.9,16.6,7.72,29.45
		c-2.2,12.94-9.13,26.73-19.5,38.83C291.34,285.15,272.48,295.73,256.73,295.73C256.73,295.73,256.73,295.73,256.73,295.73z"/>
	<path d="M301.27,194.77c6.5,0,11.93,1.83,16.14,5.45c14.65,12.56,9.34,42.88-11.84,67.57c-14.52,16.93-33.23,27.45-48.84,27.45
		c-6.5,0-11.93-1.83-16.14-5.45c-14.65-12.56-9.34-42.88,11.84-67.57C266.95,205.29,285.66,194.77,301.27,194.77 M301.27,193.77
		c-15.3,0-34.45,10.14-49.59,27.8c-21.57,25.15-26.82,56.04-11.73,68.98c4.5,3.86,10.3,5.69,16.79,5.69
		c15.3,0,34.45-10.14,49.59-27.8c21.57-25.15,26.82-56.04,11.73-68.98C313.56,195.6,307.76,193.77,301.27,193.77L301.27,193.77z"/>
</g>
<g>
	<path class="st0" d="M194.32,299.62c-8.33,0-18.19-5.76-26.36-15.42c-14.84-17.54-23.4-44.52-19.47-61.41
		c1.76-7.57,5.8-12.78,12.01-15.5c2.54-1.11,5.18-1.67,7.85-1.67c20.08,0,40.24,32.49,43.53,59.38c2.28,18.61-4.16,30.2-11.54,33.43
		C198.54,299.22,196.51,299.62,194.32,299.62z"/>
	<path d="M168.35,205.12v1c9.3,0,19.17,6.91,27.79,19.45c7.92,11.53,13.62,26.29,15.24,39.49c2.25,18.36-4.03,29.76-11.25,32.91
		c-1.74,0.76-3.69,1.14-5.82,1.14c-8.19,0-17.9-5.7-25.97-15.24c-14.75-17.43-23.26-44.22-19.37-60.98
		c1.72-7.41,5.66-12.5,11.72-15.15c2.47-1.08,5.05-1.63,7.65-1.63L168.35,205.12 M168.35,205.12c-2.68,0-5.37,0.54-8.05,1.71
		c-23.57,10.3-12.35,54.49,7.28,77.69c8.92,10.54,18.83,15.59,26.74,15.59c2.26,0,4.36-0.41,6.22-1.23
		c8.39-3.67,14-16.32,11.84-33.95C209.1,238.21,189.24,205.12,168.35,205.12L168.35,205.12z"/>
</g>
<path class="st1" d="M347.5,173.5c0,0,66-73-35-92c0,0,24,58-42,76"/>
</svg>
