<?xml version="1.0" encoding="utf-8"?>
<!-- Generator: Adobe Illustrator 27.7.0, SVG Export Plug-In . SVG Version: 6.00 Build 0)  -->
<svg version="1.1" id="Layer_1" xmlns="http://www.w3.org/2000/svg" xmlns:xlink="http://www.w3.org/1999/xlink" x="0px" y="0px"
	 viewBox="0 0 300 300" style="enable-background:new 0 0 300 300;" xml:space="preserve">
<style type="text/css">
	.st0{stroke:#000000;stroke-miterlimit:10;}
	.st1{fill:#FFFFFF;stroke:#FFFFFF;stroke-miterlimit:10;}
</style>
<path class="st0" d="M153.14,198.91H139c-24.34,0-41.76-19.73-38.9-44.08l6.02-51.32c2.86-24.34,24.91-44.08,49.25-44.08h14.14
	c1.48,0,2.94,0.07,4.37,0.22c22.02,2.2,37.22,21,34.54,43.86l-6.02,51.32C199.54,179.17,177.49,198.91,153.14,198.91z"/>
<polygon class="st1" points="173.91,47.26 102.68,132.79 151.04,132.79 138.38,209.76 206.65,118.64 163.55,118.64 "/>
<polygon class="st0" points="147.92,198.91 139.7,209.76 166.01,191.67 "/>
<polygon class="st0" points="172.89,61.65 175.54,47.29 178.5,67.03 "/>
</svg>
