<?xml version="1.0" encoding="utf-8"?>
<!-- Generator: Adobe Illustrator 28.2.0, SVG Export Plug-In . SVG Version: 6.00 Build 0)  -->
<svg version="1.1" id="Layer_1" xmlns="http://www.w3.org/2000/svg" xmlns:xlink="http://www.w3.org/1999/xlink" x="0px" y="0px"
	 viewBox="0 0 500 500" style="enable-background:new 0 0 500 500;" xml:space="preserve">
<style type="text/css">
	.st0{fill:#FFFFFF;}
	.st1{fill:none;stroke:#000000;stroke-width:13;stroke-miterlimit:10;}
	.st2{fill:none;stroke:#000000;stroke-width:12;stroke-miterlimit:10;}
</style>
<g>
	<path class="st0" d="M197.29,357c-13.95,0-25.29-11.35-25.29-25.29V176.29c0-13.95,11.35-25.29,25.29-25.29h106.42
		c13.95,0,25.29,11.35,25.29,25.29v155.42c0,13.95-11.35,25.29-25.29,25.29H197.29z"/>
	<path d="M303.71,154C316,154,326,164,326,176.29v155.42C326,344,316,354,303.71,354H197.29C185,354,175,344,175,331.71V176.29
		C175,164,185,154,197.29,154H303.71 M303.71,148H197.29c-15.63,0-28.29,12.67-28.29,28.29v155.42c0,15.63,12.67,28.29,28.29,28.29
		h106.42c15.63,0,28.29-12.67,28.29-28.29V176.29C332,160.67,319.33,148,303.71,148L303.71,148z"/>
</g>
<g>
	<rect x="194" y="174" width="112" height="77"/>
	<path d="M303,177v71H197v-71H303 M309,171H191v83h118V171L309,171z"/>
</g>
<g>
	<circle cx="294" cy="313" r="14"/>
	<path d="M294,302c6.07,0,11,4.93,11,11s-4.93,11-11,11s-11-4.93-11-11S287.93,302,294,302 M294,296c-9.39,0-17,7.61-17,17
		s7.61,17,17,17s17-7.61,17-17S303.39,296,294,296L294,296z"/>
</g>
<g>
	<path d="M260,300c-7.72,0-14-6.28-14-14s6.28-14,14-14c7.72,0,14,6.28,14,14S267.72,300,260,300z"/>
	<path d="M260,275c6.07,0,11,4.93,11,11s-4.93,11-11,11c-6.07,0-11-4.93-11-11S253.93,275,260,275 M260,269c-9.39,0-17,7.61-17,17
		c0,9.39,7.61,17,17,17c9.39,0,17-7.61,17-17C277,276.61,269.39,269,260,269L260,269z"/>
</g>
<g>
	<line class="st1" x1="210" y1="289" x2="210" y2="324"/>
</g>
<line class="st2" x1="191" y1="306" x2="228" y2="306"/>
</svg>
